<svg viewBox="0 0 96 96" xmlns="http://www.w3.org/2000/svg" xmlns:xlink="http://www.w3.org/1999/xlink" id="Icons_Quotes" overflow="hidden"><defs></defs><path d="M96 0 96 96 0 96 0 0 96 0M97-1-1-1-1 97 97 97 97-1Z" stroke="none" stroke-width="1" stroke-linecap="butt" fill="#FFFFFF" fill-opacity="1"/><path d="M45.06 14 45.06 28.81 53.51 28.81C53.3695 33.375 49.6271 37.0022 45.06 37L45.06 43.35C53.1448 43.351 59.7344 36.8639 59.86 28.78L59.86 28.78 59.86 14Z" stroke="none" stroke-width="1" stroke-linecap="butt" fill="#FFFFFF" fill-opacity="1"/><path d="M67.28 14 67.28 28.81 75.73 28.81C75.5843 33.3727 71.845 36.9969 67.28 37L67.28 43.35C75.3648 43.351 81.9544 36.8639 82.08 28.78L82.08 28.78 82.08 14Z" stroke="none" stroke-width="1" stroke-linecap="butt" fill="#FFFFFF" fill-opacity="1"/><path d="M50.94 82 50.94 67.19 42.49 67.19C42.6305 62.625 46.3729 58.9978 50.94 59L50.94 52.62C42.8552 52.619 36.2656 59.1061 36.14 67.19L36.14 67.19 36.14 82Z" stroke="none" stroke-width="1" stroke-linecap="butt" fill="#FFFFFF" fill-opacity="1"/><path d="M28.72 82 28.72 67.19 20.27 67.19C20.4157 62.6273 24.155 59.0031 28.72 59L28.72 52.62C20.6352 52.619 14.0456 59.1061 13.92 67.19L13.92 67.19 13.92 82Z" stroke="none" stroke-width="1" stroke-linecap="butt" fill="#FFFFFF" fill-opacity="1"/></svg>